<svg xmlns="http://www.w3.org/2000/svg" width="48" height="48" viewBox="0 0 48 48"><defs><radialGradient id="cel-tile" gradientUnits="userSpaceOnUse" cx="13" cy="10" r="56"><stop offset="0" stop-color="#ffe98a"/><stop offset=".48" stop-color="#fdda24"/><stop offset="1" stop-color="#d9a900"/></radialGradient><linearGradient id="cel-depth" x1="0" y1="0" x2="0" y2="1"><stop offset="0" stop-color="#fff" stop-opacity=".25"/><stop offset=".35" stop-color="#fff" stop-opacity="0"/><stop offset=".7" stop-color="#000" stop-opacity="0"/><stop offset="1" stop-color="#000" stop-opacity=".2"/></linearGradient><radialGradient id="cel-coin" gradientUnits="userSpaceOnUse" cx="26.5" cy="11" r="7"><stop offset="0" stop-color="#e7b93c"/><stop offset=".55" stop-color="#c78f1e"/><stop offset="1" stop-color="#9a6a10"/></radialGradient></defs><rect width="48" height="48" rx="14" fill="url(#cel-tile)"/><rect width="48" height="48" rx="14" fill="url(#cel-depth)"/><ellipse cx="14" cy="10" rx="8.5" ry="4" fill="#fff" opacity=".5" transform="rotate(-28 14 10)"/><g fill="#26201a"><rect x="13" y="39" width="6" height="7" rx="2.2"/><rect x="28" y="39" width="6" height="7" rx="2.2"/><path d="M12 21C11.3 15.5 14.5 11.5 18 15C19.5 17.5 17.5 21.5 12 21Z"/><ellipse cx="24" cy="30" rx="15" ry="10.5"/><circle cx="8" cy="28.5" r="5.3"/></g><circle cx="6.1" cy="26.9" r=".85" fill="url(#cel-tile)"/><circle cx="6.1" cy="30.1" r=".85" fill="url(#cel-tile)"/><rect x="19" y="19.8" width="11" height="3" rx="1.5" fill="url(#cel-tile)" transform="rotate(-8 24.5 21.3)"/><ellipse cx="26.5" cy="11" rx="3.6" ry="3.1" fill="url(#cel-coin)" transform="rotate(-15 26.5 11)"/></svg>
